General
Complete name                    : Jumanji.mkv
Format                           : Matroska
File size                        : 1.37 GiB
Duration                         : 1h 39mn
Overall bit rate                 : 1 956 Kbps


Video
ID                               : 1
Format                           : AVC
Duration                         : 1h 39mn
Bit rate                         : 1 245 Kbps
Width                            : 702 pixels
Height                           : 552 pixels
Display aspect ratio             : 16:9
Frame rate                       : 25.000 fps
Resolution                       : 8 bits
Colorimetry                      : 4:2:0
Scan type                        : Progressive
Bits/(Pixel*Frame)               : 0.129
Stream size                      : 890 MiB (64%)
Writing library                  : x264 core 79


Audio #1
ID                               : 2
Format                           : AC-3
Format/Info                      : Audio Coding 3
Codec ID                         : A_AC3
Duration                         : 1h 39mn
Bit rate mode                    : Constant
Bit rate                         : 448 Kbps
Channel(s)                       : 6 channels
Channel positions                : Front: L C R, Surround: L R, LFE
Sampling rate                    : 48.0 KHz
Stream size                      : 320 MiB (23%)
Language                         : English

Audio #2
ID                               : 3
Format                           : MPEG Audio
Format version                   : Version 1
Format profile                   : Layer 3
Mode                             : Joint stereo / MS Stereo
Codec ID                         : A_MPEG/L3
Codec ID/Hint                    : MP3
Duration                         : 1h 39mn
Bit rate mode                    : Constant
Bit rate                         : 112 Kbps
Channel(s)                       : 2 channels
Sampling rate                    : 48.0 KHz
Stream size                      : 80.0 MiB (6%)
Language                         : French

Audio #3
ID                               : 4
Format                           : MPEG Audio
Format version                   : Version 1
Format profile                   : Layer 3
Mode                             : Joint stereo
Codec ID                         : A_MPEG/L3
Codec ID/Hint                    : MP3
Duration                         : 1h 39mn
Bit rate mode                    : Constant
Bit rate                         : 112 Kbps
Channel(s)                       : 2 channels
Sampling rate                    : 48.0 KHz
Stream size                      : 80.0 MiB (6%)
Language                         : Italian

Text #1
Language                         : English

Text #2
Language                         : French

Text #3
Language                         : German

Text #4
Language                         : Dutch

Text #5
Language                         : Arabic

Text #6
Language                         : Bulgarian

Text #7
Language                         : Czech

Text #8
Language                         : Danish

Text #9
Language                         : Finnish

Text #10
Language                         : Greek

Text #11
Language                          :???????????

Text #12
Language                         : Hindi

Text #13
Language                         : Hungarian

Text #14
Language                         : Icelandic

Text #15
Language                         : Norwegian

Text #16
Language                         : Polish

Text #17
Language                         : Swedish

Text #18
Language                         : Turkish

Text #19
Language                         : French

Text #20
Language                         : German

Text #21
Language                         : Dutch



